<svg xmlns="http://www.w3.org/2000/svg" viewBox="0 0 24 24" fill="currentColor">
  <path d="M8 2a1 1 0 0 1 1 1v1h6V3a1 1 0 1 1 2 0v1h1a3 3 0 0 1 3 3v12a3 3 0 0 1-3 3H6a3 3 0 0 1-3-3V7a3 3 0 0 1 3-3h1V3a1 1 0 0 1 1-1ZM5 10v9a1 1 0 0 0 1 1h12a1 1 0 0 0 1-1v-9H5Zm2 3a1 1 0 0 1 1-1h.01a1 1 0 1 1 0 2H8a1 1 0 0 1-1-1Zm4 0a1 1 0 0 1 1-1h.01a1 1 0 1 1 0 2H12a1 1 0 0 1-1-1Zm4 0a1 1 0 0 1 1-1h.01a1 1 0 1 1 0 2H16a1 1 0 0 1-1-1Zm-8 4a1 1 0 0 1 1-1h.01a1 1 0 1 1 0 2H8a1 1 0 0 1-1-1Zm4 0a1 1 0 0 1 1-1h.01a1 1 0 1 1 0 2H12a1 1 0 0 1-1-1Z"/>
</svg>
