<svg width="100%" height="100%" viewBox="0 0 23 21" fill="none" xmlns="http://www.w3.org/2000/svg">
<path d="M6.26953 20.8887C5.6543 20.8887 5.29297 20.459 5.29297 19.7852V16.9824H4.56055C1.78711 16.9824 0 15.2539 0 12.3242V4.67773C0 1.74805 1.71875 0 4.66797 0H17.4707C20.4297 0 22.1484 1.74805 22.1484 4.67773V12.3242C22.1484 15.2441 20.4297 16.9824 17.4707 16.9824H11.1426L7.5293 20.2344C7.02148 20.6934 6.69922 20.8887 6.26953 20.8887ZM8.96484 12.3438L11.0938 10.7812L13.2227 12.3438C13.6816 12.6758 14.2188 12.3828 14.0137 11.7676L13.1836 9.26758L15.3516 7.71484C15.8008 7.38281 15.6445 6.79688 15.0684 6.79688H12.3828L11.582 4.30664C11.4062 3.75977 10.791 3.75977 10.6152 4.30664L9.80469 6.79688H7.11914C6.54297 6.79688 6.37695 7.39258 6.83594 7.71484L9.01367 9.26758L8.17383 11.7676C7.95898 12.373 8.50586 12.6758 8.96484 12.3438Z" fill="currentColor"/>
</svg>
