<svg width="100%" height="100%" viewBox="0 0 18 18" fill="none" xmlns="http://www.w3.org/2000/svg">
<path d="M6.78711 17.1289C6.24023 17.1289 5.83008 16.9238 5.45898 16.4648L0.400391 10.2344C0.117188 9.89258 0 9.57031 0 9.22852C0 8.44727 0.576172 7.88086 1.37695 7.88086C1.85547 7.88086 2.1875 8.05664 2.50977 8.45703L6.74805 13.8281L15.0195 0.722656C15.3516 0.195312 15.6836 0 16.2305 0C17.0215 0 17.5879 0.556641 17.5879 1.32812C17.5879 1.63086 17.5 1.94336 17.2656 2.29492L8.125 16.4355C7.8125 16.9043 7.36328 17.1289 6.78711 17.1289Z" fill="currentColor"/>
</svg>
