<svg width="100%" height="100%" viewBox="0 0 10 18" fill="none" xmlns="http://www.w3.org/2000/svg">
<path d="M9.93164 8.64258C9.93164 8.97461 9.81445 9.25781 9.55078 9.51172L1.93359 16.9629C1.71875 17.1777 1.45508 17.2852 1.14258 17.2852C0.507812 17.2852 0 16.7969 0 16.1523C0 15.8398 0.136719 15.5566 0.341797 15.3418L7.2168 8.64258L0.341797 1.94336C0.126953 1.71875 0 1.43555 0 1.12305C0 0.488281 0.507812 0 1.14258 0C1.45508 0 1.71875 0.107422 1.93359 0.322266L9.55078 7.77344C9.80469 8.02734 9.93164 8.31055 9.93164 8.64258Z" fill="currentColor"/>
</svg>
