<svg width="100%" height="100%" viewBox="0 0 17 22" fill="none" xmlns="http://www.w3.org/2000/svg">
<path d="M3.17383 21.1426C1.08398 21.1426 0 20.0488 0 17.9395V3.20312C0 1.10352 1.08398 0 3.17383 0H7.63672V7.38281C7.63672 8.60352 8.22266 9.19922 9.44336 9.19922H16.748V17.9395C16.748 20.0391 15.6641 21.1426 13.5742 21.1426H3.17383ZM9.61914 7.77344C9.24805 7.77344 9.05273 7.58789 9.05273 7.2168V0.0976562C9.50195 0.15625 9.94141 0.488281 10.4199 0.976562L15.7617 6.39648C16.2598 6.91406 16.582 7.33398 16.6406 7.77344H9.61914ZM4.58008 13.5156H12.1973C12.5977 13.5156 12.9004 13.2129 12.9004 12.8223C12.9004 12.4316 12.5977 12.1387 12.1973 12.1387H4.58008C4.16016 12.1387 3.86719 12.4316 3.86719 12.8223C3.86719 13.2129 4.16016 13.5156 4.58008 13.5156ZM4.58008 17.1777H12.1973C12.5977 17.1777 12.9004 16.875 12.9004 16.4941C12.9004 16.1035 12.5977 15.8008 12.1973 15.8008H4.58008C4.16016 15.8008 3.86719 16.1035 3.86719 16.4941C3.86719 16.875 4.16016 17.1777 4.58008 17.1777Z" fill="currentColor"/>
</svg>
