<svg width="100%" height="100%" viewBox="0 0 23 26" fill="none" xmlns="http://www.w3.org/2000/svg">
<path d="M9.42383 4.10156C6.45508 4.10156 4.64844 5.9082 4.64844 8.89648V21.5332C3.61328 21.2109 2.93945 20.3418 2.68555 18.9258L0.371094 5.81055C0 3.67188 0.917969 2.35352 3.02734 1.98242L12.2168 0.361328C14.3262 0 15.6543 0.917969 16.0254 3.05664L16.2012 4.10156H9.42383ZM22.0312 8.89648V22.2168C22.0312 24.375 20.8984 25.5273 18.7598 25.5273H9.42383C7.28516 25.5273 6.14258 24.375 6.14258 22.2168V8.89648C6.14258 6.73828 7.28516 5.5957 9.42383 5.5957H18.7598C20.8984 5.5957 22.0312 6.73828 22.0312 8.89648Z" fill="currentColor"/>
</svg>
