<svg width="100%" height="100%" viewBox="0 0 23 19" fill="none" xmlns="http://www.w3.org/2000/svg">
<path d="M3.20312 18.1934C1.09375 18.1934 0 17.1094 0 15.0195V3.11523C0 1.06445 1.07422 0 2.90039 0H5.25391C6.26953 0 6.77734 0.185547 7.4707 0.751953L8.02734 1.20117C8.56445 1.64062 8.97461 1.80664 9.67773 1.80664H19.1699C21.2793 1.80664 22.373 2.89062 22.373 4.98047V15.0195C22.373 17.1094 21.2891 18.1934 19.4238 18.1934H3.20312ZM1.88477 5.55664H20.4688V4.9707C20.4688 4.35547 20.0195 3.95508 19.2773 3.95508H3.06641C2.32422 3.95508 1.88477 4.35547 1.88477 4.9707V5.55664Z" fill="currentColor"/>
</svg>
