<svg width="21" height="21" viewBox="0 0 21 21" fill="none" xmlns="http://www.w3.org/2000/svg">
<path d="M12.4121 20.8398C11.4453 20.8398 11.0645 20.0977 10.7617 19.0918L9.28711 14.2676C9.07227 13.5547 9.12109 13.0664 9.56055 12.5879L19.6582 1.5918C19.7852 1.45508 19.7754 1.26953 19.668 1.17188C19.5605 1.06445 19.3945 1.05469 19.248 1.18164L8.26172 11.3086C7.74414 11.7773 7.31445 11.7871 6.5918 11.5625L1.67969 10.0586C0.703125 9.76562 0 9.38477 0 8.42773C0 7.63672 0.634766 7.08984 1.49414 6.75781L18.4961 0.253906C18.9258 0.0878906 19.3066 0 19.6289 0C20.3711 0 20.8398 0.46875 20.8398 1.21094C20.8398 1.5332 20.752 1.91406 20.5859 2.34375L14.1113 19.2773C13.7402 20.2246 13.2031 20.8398 12.4121 20.8398Z" fill="currentColor"/>
</svg>
