<svg width="100%" height="100%" viewBox="0 0 27 26" fill="none" xmlns="http://www.w3.org/2000/svg">
<path d="M9.79492 2.46094C9.11133 2.46094 8.57422 1.91406 8.57422 1.23047C8.57422 0.556641 9.11133 0 9.79492 0C10.4785 0 11.0254 0.556641 11.0254 1.23047C11.0254 1.91406 10.4785 2.46094 9.79492 2.46094ZM15.9473 4.07227C14.8438 4.07227 13.9648 3.18359 13.9648 2.08008C13.9648 0.957031 14.8438 0.0878906 15.9473 0.0878906C17.0605 0.0878906 17.9395 0.957031 17.9395 2.08008C17.9395 3.18359 17.0605 4.07227 15.9473 4.07227ZM24.0039 2.73438C23.4277 2.73438 22.9785 2.27539 22.9785 1.70898C22.9785 1.15234 23.4277 0.693359 24.0039 0.693359C24.5508 0.693359 25.0098 1.15234 25.0098 1.70898C25.0098 2.27539 24.5508 2.73438 24.0039 2.73438ZM21.084 3.31055C21.3965 2.98828 21.9336 2.98828 22.2656 3.31055C22.5879 3.64258 22.5977 4.17969 22.2656 4.50195L20.4492 6.31836C20.127 6.65039 19.5898 6.64062 19.2676 6.31836C18.9453 5.98633 18.9355 5.45898 19.2676 5.12695L21.084 3.31055ZM16.709 18.9844L3.26172 24.6094C1.5332 25.332 0 23.7988 0.78125 22.0605L6.68945 8.95508C7.30469 7.58789 8.57422 7.43164 9.99023 7.89062C10.0098 6.66992 9.89258 5.44922 9.66797 4.23828C9.56055 3.75977 10.0195 3.36914 10.4785 3.35938C10.9375 3.35938 11.2305 3.7207 11.3184 4.15039C11.6016 5.6543 11.6992 7.13867 11.6211 8.64258C12.4805 9.13086 13.3105 9.75586 14.0332 10.3906L17.3535 7.08984C17.6562 6.78711 18.2031 6.75781 18.5254 7.09961C18.8574 7.42188 18.8281 7.95898 18.5254 8.27148L15.2246 11.582C15.8594 12.2949 16.4746 13.1348 16.9629 13.9941C18.4668 13.916 19.9707 14.0137 21.4746 14.2969C21.9043 14.3945 22.2754 14.6777 22.2754 15.1465C22.2754 15.6152 21.8652 16.0645 21.3965 15.957C20.1758 15.7227 18.9453 15.6152 17.7148 15.6348C18.2031 17.0996 18.0664 18.418 16.709 18.9844ZM14.1016 7.23633C13.5449 7.23633 13.0762 6.77734 13.0762 6.21094C13.0762 5.6543 13.5449 5.18555 14.1016 5.18555C14.668 5.18555 15.1172 5.6543 15.1172 6.21094C15.1172 6.77734 14.668 7.23633 14.1016 7.23633ZM20.7227 12.2266C19.7754 12.2266 19.0332 11.4844 19.0332 10.5371C19.0332 9.58984 19.7754 8.82812 20.7227 8.82812C21.6797 8.82812 22.4414 9.58984 22.4414 10.5371C22.4414 11.4844 21.6797 12.2266 20.7227 12.2266ZM11.0742 14.6094C13.4375 16.9824 15.5762 17.9004 16.1523 17.3145C16.4062 17.0605 16.3672 16.4941 16.0352 15.7422C15.5176 15.791 15 15.8691 14.4824 15.9668C14.0039 16.0645 13.623 15.6055 13.623 15.1465C13.6133 14.707 13.9551 14.4043 14.4043 14.3066C14.6387 14.2578 14.8828 14.2188 15.1172 14.1797C14.8047 13.75 14.4336 13.291 13.9941 12.8125L13.4863 13.3203C13.1641 13.6523 12.627 13.6426 12.2949 13.3203C11.9824 12.998 11.9727 12.4512 12.2949 12.1289L12.8027 11.6309C12.3242 11.1914 11.8652 10.8203 11.4355 10.5176C11.3965 10.752 11.3574 10.9863 11.3086 11.2305C11.2207 11.6797 10.9082 12.0215 10.4688 12.0117C10.0098 12.0117 9.55078 11.6309 9.6582 11.1426C9.75586 10.6348 9.83398 10.127 9.89258 9.61914C9.16016 9.30664 8.61328 9.26758 8.36914 9.52148C7.7832 10.0977 8.69141 12.2363 11.0742 14.6094ZM25.0391 11.8262C24.3555 11.8262 23.8086 11.2891 23.8086 10.6055C23.8086 9.92188 24.3457 9.36523 25.0391 9.36523C25.7227 9.36523 26.2695 9.92188 26.2695 10.6055C26.2695 11.2891 25.7227 11.8262 25.0391 11.8262ZM24.5703 16.9043C23.8867 16.9043 23.3398 16.3672 23.3398 15.6738C23.3398 14.9902 23.8867 14.4531 24.5703 14.4531C25.2441 14.4531 25.791 14.9902 25.791 15.6738C25.791 16.3672 25.2441 16.9043 24.5703 16.9043Z" fill="currentColor"/>
</svg>
