<svg width="100%" height="100%" viewBox="0 0 17 17" fill="none" xmlns="http://www.w3.org/2000/svg">
<path d="M1.09375 9.26758C0.498047 9.26758 0 8.7793 0 8.17383C0 7.57812 0.498047 7.08008 1.09375 7.08008H7.08008V1.09375C7.08008 0.498047 7.57812 0 8.17383 0C8.76953 0 9.26758 0.498047 9.26758 1.09375V7.08008H15.2539C15.8496 7.08008 16.3477 7.57812 16.3477 8.17383C16.3477 8.7793 15.8496 9.26758 15.2539 9.26758H9.26758V15.2539C9.26758 15.8496 8.76953 16.3477 8.17383 16.3477C7.57812 16.3477 7.08008 15.8496 7.08008 15.2539V9.26758H1.09375Z" fill="currentColor"/>
</svg>
