<svg width="100%" height="100%" viewBox="0 0 20 20" fill="none" xmlns="http://www.w3.org/2000/svg">
<path d="M0 7.94922C0 3.56445 3.56445 0 7.94922 0C12.334 0 15.8984 3.56445 15.8984 7.94922C15.8984 9.6582 15.3418 11.2402 14.4141 12.5195L18.877 16.9922C19.1406 17.2656 19.2773 17.627 19.2773 18.0176C19.2773 18.8281 18.6816 19.4531 17.8516 19.4531C17.4707 19.4531 17.0898 19.3262 16.8164 19.043L12.3242 14.5508C11.0742 15.4004 9.58008 15.8984 7.94922 15.8984C3.56445 15.8984 0 12.334 0 7.94922ZM2.03125 7.94922C2.03125 11.2207 4.67773 13.8672 7.94922 13.8672C11.2207 13.8672 13.8672 11.2207 13.8672 7.94922C13.8672 4.67773 11.2207 2.03125 7.94922 2.03125C4.67773 2.03125 2.03125 4.67773 2.03125 7.94922Z" fill="currentColor"/>
</svg>
