<svg width="100%" height="100%" viewBox="0 0 22 22" fill="none" xmlns="http://www.w3.org/2000/svg">
<path d="M2.46094 2.33398V2.13867C2.46094 0.820312 3.30078 0 4.64844 0H17.2461C18.5938 0 19.4336 0.820312 19.4336 2.13867V2.33398H2.46094ZM0.175781 7.16797C0.214844 7.09961 0.253906 7.02148 0.292969 6.94336L2.2168 3.38867H19.6777L21.6016 6.94336C21.6406 7.02148 21.6797 7.09961 21.7188 7.16797H0.175781ZM3.29102 11.2207C1.46484 11.2207 0 9.93164 0 8.54492V8.22266H21.9043V8.37891C21.9043 9.76562 20.4395 11.2207 18.6133 11.2207C17.5586 11.2207 16.6406 10.7324 16.0645 9.98047C15.4785 10.7324 14.5605 11.2207 13.5059 11.2207C12.4512 11.2207 11.5332 10.7324 10.957 9.98047C10.3711 10.7324 9.45312 11.2207 8.39844 11.2207C7.34375 11.2207 6.42578 10.7324 5.83984 9.98047C5.26367 10.7324 4.3457 11.2207 3.29102 11.2207ZM3.63281 21.8457C2.14844 21.8457 1.28906 20.9961 1.28906 19.5605V11.8164C1.89453 12.1094 2.58789 12.2754 3.33008 12.2754C4.29688 12.2754 5.18555 11.9629 5.88867 11.4355C6.5918 11.9629 7.48047 12.2754 8.44727 12.2754C9.41406 12.2754 10.293 11.9629 10.9961 11.4453C11.6992 11.9629 12.5781 12.2754 13.5449 12.2754C14.5117 12.2754 15.3906 11.9629 16.1035 11.4355C16.8066 11.9629 17.6855 12.2754 18.6523 12.2754C19.4043 12.2754 20.0977 12.0801 20.7031 11.7676V19.5605C20.7031 20.9961 19.834 21.8457 18.3496 21.8457H3.63281ZM13.0566 17.9688H17.0117C17.4707 17.9688 17.7637 17.6758 17.7637 17.2168V14.5312C17.7637 14.0723 17.4707 13.7793 17.0117 13.7793H13.0566C12.5977 13.7793 12.2949 14.0723 12.2949 14.5312V17.2168C12.2949 17.6758 12.5977 17.9688 13.0566 17.9688ZM4.78516 20.0977H10.1465V15.0586C10.1465 14.6094 9.85352 14.3164 9.39453 14.3164H5.54688C5.08789 14.3164 4.78516 14.6094 4.78516 15.0586V20.0977Z" fill="currentColor"/>
</svg>
