<svg width="100%" height="100%" viewBox="0 0 20 23" fill="none" xmlns="http://www.w3.org/2000/svg">
<path d="M5.26367 22.2656C3.68164 22.2656 2.69531 21.3477 2.62695 19.7754L1.97266 5.80078H0.966797C0.429688 5.80078 0 5.39062 0 4.84375C0 4.30664 0.429688 3.89648 0.966797 3.89648H5.21484V2.46094C5.21484 0.908203 6.19141 0 7.89062 0H11.6113C13.3105 0 14.2969 0.908203 14.2969 2.46094V3.89648H18.5547C19.1016 3.89648 19.5215 4.30664 19.5215 4.84375C19.5215 5.39062 19.1016 5.80078 18.5547 5.80078H17.5488L16.8945 19.7656C16.8262 21.3477 15.8301 22.2656 14.2578 22.2656H5.26367ZM7.20703 2.53906V3.89648H12.3047V2.53906C12.3047 2.07031 11.9824 1.77734 11.4648 1.77734H8.03711C7.5293 1.77734 7.20703 2.07031 7.20703 2.53906ZM5.50781 20.3418H14.0039C14.5508 20.3418 14.9121 19.9707 14.9316 19.3848L15.5566 5.80078H3.93555L4.58008 19.3848C4.60938 19.9609 4.9707 20.3418 5.50781 20.3418ZM6.89453 18.8379C6.47461 18.8379 6.18164 18.5645 6.17188 18.1445L5.87891 8.06641C5.86914 7.65625 6.15234 7.37305 6.5918 7.37305C7.01172 7.37305 7.30469 7.64648 7.31445 8.06641L7.60742 18.1348C7.61719 18.5449 7.33398 18.8379 6.89453 18.8379ZM9.76562 18.8379C9.32617 18.8379 9.0332 18.5547 9.0332 18.1445V8.06641C9.0332 7.64648 9.32617 7.37305 9.76562 7.37305C10.1953 7.37305 10.4883 7.64648 10.4883 8.06641V18.1445C10.4883 18.5547 10.1953 18.8379 9.76562 18.8379ZM12.627 18.8379C12.1875 18.8379 11.9043 18.5547 11.9141 18.1348L12.207 8.06641C12.2168 7.64648 12.5098 7.37305 12.9297 7.37305C13.3691 7.37305 13.6523 7.65625 13.6426 8.06641L13.3496 18.1445C13.3398 18.5645 13.0469 18.8379 12.627 18.8379Z" fill="currentColor"/>
</svg>
