<svg width="100%" height="100%" viewBox="0 0 17 17" fill="none" xmlns="http://www.w3.org/2000/svg">
<path d="M15.6738 13.8965C16.1523 14.375 16.1523 15.1855 15.6641 15.6738C15.1855 16.1621 14.3652 16.1621 13.8965 15.6836L8.07617 9.86328L2.25586 15.6836C1.79688 16.1426 0.966797 16.1523 0.478516 15.6738C0 15.1953 0.00976562 14.3652 0.46875 13.9062L6.28906 8.08594L0.46875 2.25586C0.00976562 1.79688 0 0.976562 0.478516 0.488281C0.966797 0 1.79688 0.0195312 2.25586 0.478516L8.07617 6.29883L13.8965 0.478516C14.375 0 15.1758 0.00976562 15.6641 0.488281C16.1523 0.976562 16.1523 1.78711 15.6738 2.26562L9.86328 8.08594L15.6738 13.8965Z" fill="currentColor"/>
</svg>
