<svg width="27" height="24" viewBox="0 0 27 24" fill="none" xmlns="http://www.w3.org/2000/svg">
<path d="M25.4688 5.03906C26.1426 5.3418 26.4941 5.89844 26.4941 6.47461C26.4941 7.05078 26.1426 7.59766 25.4688 7.91016L15.9277 12.2754C14.9023 12.7441 14.0625 12.959 13.2422 12.9395C12.4219 12.959 11.5918 12.7539 10.5664 12.2754L6.32812 10.3418L12.2852 7.56836C12.5879 7.65625 12.9297 7.70508 13.2812 7.70508C14.3945 7.70508 15.459 7.19727 15.459 6.47461C15.459 5.77148 14.3848 5.26367 13.2812 5.26367C12.168 5.26367 11.084 5.77148 11.084 6.47461C11.084 6.54297 11.1035 6.61133 11.1426 6.66992L4.82422 9.61914L1.02539 7.91016C0.351562 7.59766 0 7.05078 0 6.47461C0 5.89844 0.351562 5.3418 1.02539 5.03906L10.5664 0.673828C11.5918 0.214844 12.4219 0 13.2422 0.00976562C14.0625 0 14.9023 0.214844 15.9277 0.673828L25.4688 5.03906ZM6.29883 11.8848L9.9707 13.5742C11.1523 14.1113 12.2266 14.375 13.2422 14.3652C14.2676 14.375 15.3418 14.1113 16.5234 13.5742L22.8906 10.6445V13.75C22.8906 16.7871 18.9844 19.2578 13.2422 19.2578C10.3906 19.2578 7.98828 18.6426 6.29883 17.627V11.8848ZM3.59375 10.6543L4.86328 11.2402V16.4746C4.05273 15.6152 3.59375 14.5996 3.59375 13.75V10.6543ZM4.01367 19.9512C4.01367 19.3066 4.33594 18.8379 4.86328 18.6621V16.4746C5.25391 16.9043 5.73242 17.2949 6.29883 17.627V18.6621C6.81641 18.8477 7.13867 19.3164 7.13867 19.9512V22.4902C7.13867 23.3105 6.60156 23.8477 5.77148 23.8477H5.38086C4.56055 23.8477 4.01367 23.3105 4.01367 22.4902V19.9512Z" fill="#181818"/>
</svg>
