<svg width="14" height="20" viewBox="0 0 14 20" fill="none" xmlns="http://www.w3.org/2000/svg">
<path d="M2.30469 19.6777C0.78125 19.6777 0 18.877 0 17.2266V10.166C0 8.70117 0.625 7.91016 1.8457 7.75391V5.46875C1.8457 1.91406 4.20898 0 6.96289 0C9.70703 0 12.0801 1.91406 12.0801 5.46875V7.75391C13.291 7.91016 13.916 8.71094 13.916 10.166V17.2266C13.916 18.877 13.1348 19.6777 11.6113 19.6777H2.30469ZM3.88672 5.32227V7.73438H10.0488V5.32227C10.0488 3.16406 8.64258 1.95312 6.96289 1.95312C5.27344 1.95312 3.88672 3.16406 3.88672 5.32227Z" fill="#181818"/>
</svg>
