<svg width="25" height="18" viewBox="0 0 25 18" fill="none" xmlns="http://www.w3.org/2000/svg">
<path d="M12.0898 9.54102C11.7969 9.54102 11.5137 9.42383 11.2109 9.15039L1.39648 0.449219C1.93359 0.146484 2.5293 0 3.31055 0H20.8594C21.6406 0 22.2363 0.146484 22.7734 0.449219L12.959 9.15039C12.6562 9.42383 12.373 9.54102 12.0898 9.54102ZM0.244141 15.5371C0.0976562 15.1465 0 14.6875 0 14.082V3.28125C0 2.62695 0.107422 2.10938 0.234375 1.82617L7.50977 8.28125L0.244141 15.5371ZM23.9258 15.5371L16.6602 8.28125L23.9355 1.82617C24.0625 2.10938 24.1699 2.62695 24.1699 3.28125V14.082C24.1699 14.6875 24.082 15.1465 23.9258 15.5371ZM3.0957 17.3633C2.38281 17.3633 1.80664 17.207 1.39648 16.9531L8.87695 9.48242L10.1465 10.6055C10.7715 11.1719 11.3965 11.4355 12.0898 11.4355C12.7734 11.4355 13.3984 11.1719 14.0332 10.6055L15.293 9.48242L22.7734 16.9531C22.3633 17.207 21.7871 17.3633 21.0742 17.3633H3.0957Z" fill="#181818"/>
</svg>
