<svg width="20" height="21" viewBox="0 0 20 21" fill="none" xmlns="http://www.w3.org/2000/svg">
<path d="M1.71875 16.875C0.664062 16.875 0 16.2695 0 15.3809C0 14.3164 0.908203 13.4277 1.80664 12.5977C2.51953 11.9434 2.67578 10.5273 2.83203 9.14062C3.01758 5.66406 4.11133 3.16406 6.5918 2.26562C7.02148 0.976562 8.11523 0 9.56055 0C11.0059 0 12.0996 0.976562 12.5293 2.26562C15.0098 3.16406 16.1035 5.66406 16.2891 9.14062C16.4453 10.5273 16.6016 11.9434 17.3145 12.5977C18.2031 13.4277 19.1211 14.3164 19.1211 15.3809C19.1211 16.2695 18.457 16.875 17.4023 16.875H1.71875ZM9.56055 20.9668C7.7832 20.9668 6.48438 19.7168 6.36719 18.2617H12.7539C12.627 19.7168 11.3379 20.9668 9.56055 20.9668Z" fill="#181818"/>
</svg>
