<svg width="45" height="45" viewBox="0 0 45 45" fill="none" xmlns="http://www.w3.org/2000/svg">
<path d="M26.5625 22.417C26.5625 22.6328 26.4863 22.8169 26.3149 22.9819L21.3638 27.8252C21.2241 27.9648 21.0527 28.0347 20.8496 28.0347C20.437 28.0347 20.1069 27.7173 20.1069 27.2983C20.1069 27.0952 20.1958 26.9111 20.3291 26.7715L24.7979 22.417L20.3291 18.0625C20.1895 17.9165 20.1069 17.7324 20.1069 17.5293C20.1069 17.1167 20.437 16.7993 20.8496 16.7993C21.0527 16.7993 21.2241 16.8691 21.3638 17.0088L26.3149 21.8521C26.48 22.0171 26.5625 22.2012 26.5625 22.417Z" fill="#181818"/>
</svg>
