<svg width="82" height="82" viewBox="0 0 82 82" fill="none" xmlns="http://www.w3.org/2000/svg">
<path d="M40.7422 81.4844C18.2422 81.4844 0 63.2422 0 40.7422C0 18.2422 18.2422 0 40.7422 0C63.2422 0 81.4844 18.2422 81.4844 40.7422C81.4844 63.2422 63.2422 81.4844 40.7422 81.4844ZM40.7422 72.5391C58.3203 72.5391 72.5391 58.3203 72.5391 40.7422C72.5391 23.1641 58.3203 8.94531 40.7422 8.94531C23.1641 8.94531 8.94531 23.1641 8.94531 40.7422C8.94531 58.3203 23.1641 72.5391 40.7422 72.5391ZM40.7031 39.2969C35.2734 39.2578 30.8984 34.6875 30.8984 28.5547C30.8984 22.8125 35.2734 18.0469 40.7031 18.0469C46.1719 18.0469 50.5469 22.8125 50.5469 28.5547C50.5469 34.6875 46.1719 39.3359 40.7031 39.2969ZM23.8281 60.0781C22.0312 60.0781 21.1328 58.8281 21.1328 57.1875C21.1328 53.0078 27.2656 42.2656 40.7031 42.2656C54.1797 42.2656 60.2734 53.0078 60.2734 57.1875C60.2734 58.8281 59.375 60.0781 57.5781 60.0781H23.8281Z" fill="#6B6B6B"/>
</svg>
